<mxfile host="app.diagrams.net" agent="Mozilla/5.0 (X11; Linux x86_64) AppleWebKit/537.36 (KHTML, like Gecko) Chrome/128.0.0.0 Safari/537.36" version="24.7.14">
  <diagram name="Page-1" id="2YBvvXClWsGukQMizWep">
    <mxGraphModel dx="1193" dy="664" grid="1" gridSize="10" guides="1" tooltips="1" connect="1" arrows="1" fold="1" page="1" pageScale="1" pageWidth="850" pageHeight="1100" math="0" shadow="0">
      <root>
        <mxCell id="0" />
        <mxCell id="1" parent="0" />
        <mxCell id="8sSVGR7K7UTYBefQu9nO-28" value="" style="endArrow=none;dashed=1;html=1;dashPattern=1 3;strokeWidth=2;rounded=0;" edge="1" parent="1">
          <mxGeometry width="50" height="50" relative="1" as="geometry">
            <mxPoint x="491.0799999999999" y="170" as="sourcePoint" />
            <mxPoint x="494" y="670" as="targetPoint" />
          </mxGeometry>
        </mxCell>
        <mxCell id="8sSVGR7K7UTYBefQu9nO-27" value="" style="endArrow=none;dashed=1;html=1;dashPattern=1 3;strokeWidth=2;rounded=0;" edge="1" parent="1">
          <mxGeometry width="50" height="50" relative="1" as="geometry">
            <mxPoint x="327.15999999999997" y="170" as="sourcePoint" />
            <mxPoint x="330" y="670" as="targetPoint" />
          </mxGeometry>
        </mxCell>
        <mxCell id="8sSVGR7K7UTYBefQu9nO-2" value="User" style="shape=umlActor;verticalLabelPosition=top;verticalAlign=bottom;html=1;outlineConnect=0;labelPosition=center;align=center;" vertex="1" parent="1">
          <mxGeometry x="100" y="110" width="30" height="60" as="geometry" />
        </mxCell>
        <mxCell id="8sSVGR7K7UTYBefQu9nO-13" value="Halaman Utama" style="rounded=0;whiteSpace=wrap;html=1;" vertex="1" parent="1">
          <mxGeometry x="275" y="110" width="105" height="40" as="geometry" />
        </mxCell>
        <mxCell id="8sSVGR7K7UTYBefQu9nO-14" value="" style="rounded=0;whiteSpace=wrap;html=1;rotation=90;" vertex="1" parent="1">
          <mxGeometry x="291.25" y="216.25" width="72.5" height="10" as="geometry" />
        </mxCell>
        <mxCell id="8sSVGR7K7UTYBefQu9nO-15" value="" style="endArrow=none;dashed=1;html=1;dashPattern=1 3;strokeWidth=2;rounded=0;" edge="1" parent="1" source="8sSVGR7K7UTYBefQu9nO-2" target="8sSVGR7K7UTYBefQu9nO-11">
          <mxGeometry width="50" height="50" relative="1" as="geometry">
            <mxPoint x="115" y="170" as="sourcePoint" />
            <mxPoint x="115" y="380" as="targetPoint" />
          </mxGeometry>
        </mxCell>
        <mxCell id="8sSVGR7K7UTYBefQu9nO-11" value="" style="rounded=0;whiteSpace=wrap;html=1;rotation=90;" vertex="1" parent="1">
          <mxGeometry x="75" y="220" width="80" height="10" as="geometry" />
        </mxCell>
        <mxCell id="8sSVGR7K7UTYBefQu9nO-18" value="Pilih Operasi" style="text;html=1;align=center;verticalAlign=middle;resizable=0;points=[];autosize=1;strokeColor=none;fillColor=none;" vertex="1" parent="1">
          <mxGeometry x="170" y="186.25" width="90" height="30" as="geometry" />
        </mxCell>
        <mxCell id="8sSVGR7K7UTYBefQu9nO-20" value="Halaman Operasi" style="rounded=0;whiteSpace=wrap;html=1;" vertex="1" parent="1">
          <mxGeometry x="440" y="110" width="105" height="40" as="geometry" />
        </mxCell>
        <mxCell id="8sSVGR7K7UTYBefQu9nO-21" value="" style="endArrow=classic;html=1;rounded=0;entryX=0;entryY=1;entryDx=0;entryDy=0;exitX=0;exitY=0;exitDx=0;exitDy=0;" edge="1" parent="1" source="8sSVGR7K7UTYBefQu9nO-11" target="8sSVGR7K7UTYBefQu9nO-14">
          <mxGeometry width="50" height="50" relative="1" as="geometry">
            <mxPoint x="240" y="290" as="sourcePoint" />
            <mxPoint x="290" y="240" as="targetPoint" />
          </mxGeometry>
        </mxCell>
        <mxCell id="8sSVGR7K7UTYBefQu9nO-22" value="" style="rounded=0;whiteSpace=wrap;html=1;rotation=90;" vertex="1" parent="1">
          <mxGeometry x="263.52" y="410.24" width="457.96" height="10" as="geometry" />
        </mxCell>
        <mxCell id="8sSVGR7K7UTYBefQu9nO-24" value="" style="endArrow=classic;html=1;rounded=0;entryX=0;entryY=1;entryDx=0;entryDy=0;exitX=0;exitY=0;exitDx=0;exitDy=0;" edge="1" parent="1" source="8sSVGR7K7UTYBefQu9nO-14" target="8sSVGR7K7UTYBefQu9nO-22">
          <mxGeometry width="50" height="50" relative="1" as="geometry">
            <mxPoint x="260" y="200" as="sourcePoint" />
            <mxPoint x="463" y="200" as="targetPoint" />
          </mxGeometry>
        </mxCell>
        <mxCell id="8sSVGR7K7UTYBefQu9nO-26" value="Menampilkan Halaman&lt;div&gt;Operasi&lt;/div&gt;" style="text;html=1;align=center;verticalAlign=middle;resizable=0;points=[];autosize=1;strokeColor=none;fillColor=none;" vertex="1" parent="1">
          <mxGeometry x="333.75" y="186.25" width="150" height="40" as="geometry" />
        </mxCell>
        <mxCell id="8sSVGR7K7UTYBefQu9nO-30" value="Menampilkan Informasi&lt;div&gt;Operasi&lt;/div&gt;" style="text;html=1;align=center;verticalAlign=middle;resizable=0;points=[];autosize=1;strokeColor=none;fillColor=none;" vertex="1" parent="1">
          <mxGeometry x="150" y="320" width="150" height="40" as="geometry" />
        </mxCell>
        <mxCell id="8sSVGR7K7UTYBefQu9nO-32" value="" style="endArrow=classic;html=1;rounded=0;dashed=1;entryX=0.02;entryY=0.134;entryDx=0;entryDy=0;entryPerimeter=0;" edge="1" parent="1" target="8sSVGR7K7UTYBefQu9nO-33">
          <mxGeometry width="50" height="50" relative="1" as="geometry">
            <mxPoint x="480" y="320" as="sourcePoint" />
            <mxPoint x="130" y="320" as="targetPoint" />
          </mxGeometry>
        </mxCell>
        <mxCell id="8sSVGR7K7UTYBefQu9nO-34" value="" style="endArrow=none;dashed=1;html=1;dashPattern=1 3;strokeWidth=2;rounded=0;" edge="1" parent="1" source="8sSVGR7K7UTYBefQu9nO-11" target="8sSVGR7K7UTYBefQu9nO-33">
          <mxGeometry width="50" height="50" relative="1" as="geometry">
            <mxPoint x="115" y="265" as="sourcePoint" />
            <mxPoint x="115" y="380" as="targetPoint" />
          </mxGeometry>
        </mxCell>
        <mxCell id="8sSVGR7K7UTYBefQu9nO-33" value="" style="rounded=0;whiteSpace=wrap;html=1;rotation=90;" vertex="1" parent="1">
          <mxGeometry x="-47.18" y="467.5" width="324.37" height="10" as="geometry" />
        </mxCell>
        <mxCell id="8sSVGR7K7UTYBefQu9nO-35" value="" style="endArrow=classic;html=1;rounded=0;entryX=0.442;entryY=1.133;entryDx=0;entryDy=0;exitX=0.25;exitY=0;exitDx=0;exitDy=0;entryPerimeter=0;" edge="1" parent="1" source="8sSVGR7K7UTYBefQu9nO-33" target="8sSVGR7K7UTYBefQu9nO-22">
          <mxGeometry width="50" height="50" relative="1" as="geometry">
            <mxPoint x="240" y="440" as="sourcePoint" />
            <mxPoint x="483.7450000000001" y="390.00000000000006" as="targetPoint" />
          </mxGeometry>
        </mxCell>
        <mxCell id="8sSVGR7K7UTYBefQu9nO-38" value="Pilih Gambar" style="text;html=1;align=center;verticalAlign=middle;resizable=0;points=[];autosize=1;strokeColor=none;fillColor=none;" vertex="1" parent="1">
          <mxGeometry x="170" y="390" width="90" height="30" as="geometry" />
        </mxCell>
        <mxCell id="8sSVGR7K7UTYBefQu9nO-39" value="" style="endArrow=classic;html=1;rounded=0;dashed=1;entryX=0.139;entryY=0.05;entryDx=0;entryDy=0;entryPerimeter=0;" edge="1" parent="1">
          <mxGeometry width="50" height="50" relative="1" as="geometry">
            <mxPoint x="490" y="490" as="sourcePoint" />
            <mxPoint x="119.50500000000011" y="489.35125000000016" as="targetPoint" />
          </mxGeometry>
        </mxCell>
        <mxCell id="8sSVGR7K7UTYBefQu9nO-41" value="" style="endArrow=none;dashed=1;html=1;dashPattern=1 3;strokeWidth=2;rounded=0;" edge="1" parent="1" source="8sSVGR7K7UTYBefQu9nO-33">
          <mxGeometry width="50" height="50" relative="1" as="geometry">
            <mxPoint x="115" y="409" as="sourcePoint" />
            <mxPoint x="115" y="680" as="targetPoint" />
          </mxGeometry>
        </mxCell>
        <mxCell id="8sSVGR7K7UTYBefQu9nO-42" value="Menampilkan Tabel&lt;div&gt;Citra Asli&lt;/div&gt;" style="text;html=1;align=center;verticalAlign=middle;resizable=0;points=[];autosize=1;strokeColor=none;fillColor=none;" vertex="1" parent="1">
          <mxGeometry x="150" y="490" width="130" height="40" as="geometry" />
        </mxCell>
        <mxCell id="8sSVGR7K7UTYBefQu9nO-46" value="" style="endArrow=classic;html=1;rounded=0;entryX=0.796;entryY=1.05;entryDx=0;entryDy=0;exitX=0.75;exitY=0;exitDx=0;exitDy=0;entryPerimeter=0;" edge="1" parent="1" target="8sSVGR7K7UTYBefQu9nO-22">
          <mxGeometry width="50" height="50" relative="1" as="geometry">
            <mxPoint x="120.00500000000011" y="549.6875" as="sourcePoint" />
            <mxPoint x="496" y="555" as="targetPoint" />
          </mxGeometry>
        </mxCell>
        <mxCell id="8sSVGR7K7UTYBefQu9nO-47" value="Kontrol Proses Operasi" style="text;html=1;align=center;verticalAlign=middle;resizable=0;points=[];autosize=1;strokeColor=none;fillColor=none;" vertex="1" parent="1">
          <mxGeometry x="145" y="555" width="150" height="30" as="geometry" />
        </mxCell>
        <mxCell id="8sSVGR7K7UTYBefQu9nO-48" value="" style="endArrow=classic;html=1;rounded=0;dashed=1;exitX=0.924;exitY=1.3;exitDx=0;exitDy=0;exitPerimeter=0;entryX=0.924;entryY=-0.2;entryDx=0;entryDy=0;entryPerimeter=0;" edge="1" parent="1" source="8sSVGR7K7UTYBefQu9nO-22" target="8sSVGR7K7UTYBefQu9nO-33">
          <mxGeometry width="50" height="50" relative="1" as="geometry">
            <mxPoint x="470" y="661" as="sourcePoint" />
            <mxPoint x="180" y="620" as="targetPoint" />
          </mxGeometry>
        </mxCell>
        <mxCell id="8sSVGR7K7UTYBefQu9nO-51" value="Menampilkan Tabel&lt;div&gt;Citra Hasil&lt;/div&gt;" style="text;html=1;align=center;verticalAlign=middle;resizable=0;points=[];autosize=1;strokeColor=none;fillColor=none;" vertex="1" parent="1">
          <mxGeometry x="145" y="620" width="130" height="40" as="geometry" />
        </mxCell>
      </root>
    </mxGraphModel>
  </diagram>
</mxfile>
